<svg width="70" height="70" viewBox="0 0 70 70" fill="none" xmlns="http://www.w3.org/2000/svg">
<path fill-rule="evenodd" clip-rule="evenodd" d="M59.4008 23.9454C59.3085 24.7845 58.8705 25.6033 57.9945 27.2409L38.8579 63.0169C37.3849 58.3378 35.1972 53.8377 32.2944 49.6873L45.2674 25.8805C45.4797 25.4909 45.411 25.0094 45.0987 24.6971C44.7855 24.3839 44.3024 24.3158 43.9125 24.5298L20.1826 37.557C16.0187 34.6351 11.5013 32.4342 6.80319 30.9539L42.6221 11.8558C44.2588 10.9832 45.0772 10.5469 45.9154 10.4555C46.6555 10.3747 47.403 10.4848 48.0867 10.7752C48.8612 11.1042 49.5142 11.7571 50.8202 13.0632L56.7917 19.0346C58.0994 20.3423 58.7532 20.9962 59.0822 21.7716C59.3726 22.4562 59.4823 23.2046 59.4008 23.9454Z" fill="white"/>
<path fill-rule="evenodd" clip-rule="evenodd" d="M29.2823 56.055C26.7326 55.8617 23.1916 53.9277 20.0384 50.7745C16.1682 46.9043 14.1348 42.4501 14.902 39.9615C13.6613 40.5867 12.5245 41.5855 11.8424 42.2676C11.8424 42.2676 8.29031 45.4142 8.27954 50.0626C9.48919 48.853 11.4459 48.8485 12.6499 50.0525C14.7137 52.1163 12.9026 53.9228 11.4331 55.3885C11.3891 55.4324 11.3454 55.476 11.3021 55.5193C9.07462 57.7468 8.52027 61.0113 9.64259 63.7433C9.94951 62.8607 10.4559 62.0314 11.1618 61.3255C13.2862 59.2011 15.3186 59.6516 17.6808 60.1751C19.5603 60.5917 21.6485 61.0546 24.1578 60.3034C25.467 59.9114 26.7017 59.1976 27.737 58.1622C28.3738 57.5255 28.8889 56.8135 29.2823 56.055Z" fill="url(#paint0_linear_27_26)"/>
<defs>
<linearGradient id="paint0_linear_27_26" x1="21.1464" y1="43.106" x2="1.62677" y2="74.0121" gradientUnits="userSpaceOnUse">
<stop stop-color="#8B90FF"/>
<stop offset="1" stop-color="#0711FF"/>
</linearGradient>
</defs>
</svg>
